<svg xmlns="http://www.w3.org/2000/svg" width="125" height="58" viewBox="0 0 125 58">
  <metadata><?xpacket begin="﻿" id="W5M0MpCehiHzreSzNTczkc9d"?>
<x:xmpmeta xmlns:x="adobe:ns:meta/" x:xmptk="Adobe XMP Core 5.6-c142 79.160924, 2017/07/13-01:06:39        ">
   <rdf:RDF xmlns:rdf="http://www.w3.org/1999/02/22-rdf-syntax-ns#">
      <rdf:Description rdf:about=""/>
   </rdf:RDF>
</x:xmpmeta>
                                                                                                    
                                                                                                    
                                                                                                    
                                                                                                    
                                                                                                    
                                                                                                    
                                                                                                    
                                                                                                    
                                                                                                    
                                                                                                    
                                                                                                    
                                                                                                    
                                                                                                    
                                                                                                    
                                                                                                    
                                                                                                    
                                                                                                    
                                                                                                    
                                                                                                    
                                                                                                    
                           
<?xpacket end="w"?></metadata>
<defs>
    <style>
      .cls-1 {
        fill: #fff;
        fill-rule: evenodd;
      }
    </style>
  </defs>
  <path id="Shape_345_copy_3" data-name="Shape 345 copy 3" class="cls-1" d="M1795.32,268a23.644,23.644,0,0,1-.32-3.881,24.207,24.207,0,0,1,23.09-23.928,14.3,14.3,0,0,1,11.04-5.946,14.106,14.106,0,0,1,14.18-12.816,14.341,14.341,0,0,1,9.28,3.381,17.558,17.558,0,0,1,34.26-1.926c0.57-.055,1.14-0.085,1.73-0.085a17.43,17.43,0,0,1,16.96,12.943,28.413,28.413,0,0,1,9.64-1.529c15.91,0.466,23.84,7.973,28.2,18.324,0.4-.028.8-0.06,1.21-0.06A17.362,17.362,0,0,1,1962.01,268H1795.32Z" transform="translate(-1795 -210)"/>
</svg>
