<svg xmlns="http://www.w3.org/2000/svg" width="133" height="69" viewBox="0 0 133 69">
  <metadata><?xpacket begin="﻿" id="W5M0MpCehiHzreSzNTczkc9d"?>
<x:xmpmeta xmlns:x="adobe:ns:meta/" x:xmptk="Adobe XMP Core 5.6-c142 79.160924, 2017/07/13-01:06:39        ">
   <rdf:RDF xmlns:rdf="http://www.w3.org/1999/02/22-rdf-syntax-ns#">
      <rdf:Description rdf:about=""/>
   </rdf:RDF>
</x:xmpmeta>
                                                                                                    
                                                                                                    
                                                                                                    
                                                                                                    
                                                                                                    
                                                                                                    
                                                                                                    
                                                                                                    
                                                                                                    
                                                                                                    
                                                                                                    
                                                                                                    
                                                                                                    
                                                                                                    
                                                                                                    
                                                                                                    
                                                                                                    
                                                                                                    
                                                                                                    
                                                                                                    
                           
<?xpacket end="w"?></metadata>
<defs>
    <style>
      .cls-1 {
        fill: #fff;
        fill-rule: evenodd;
      }
    </style>
  </defs>
  <path id="Shape_345_copy_2" data-name="Shape 345 copy 2" class="cls-1" d="M-63.617,337A28.33,28.33,0,0,1-64,332.377,28.685,28.685,0,0,1-36.76,303.911a16.813,16.813,0,0,1,13.021-7.074A16.694,16.694,0,0,1-7.015,281.59a16.844,16.844,0,0,1,10.948,4.023,20.675,20.675,0,0,1,40.413-2.291c0.673-.065,1.354-0.1,2.044-0.1a20.585,20.585,0,0,1,20,15.4A33.35,33.35,0,0,1,77.773,296.8c18.759,0.554,28.122,9.485,33.257,21.8,0.474-.032.947-0.072,1.43-0.072A20.538,20.538,0,0,1,133.009,337H-63.617Z" transform="translate(0 -268)"/>
</svg>
